<svg width="262" height="270" viewBox="0 0 262 270" fill="none" xmlns="http://www.w3.org/2000/svg">
<g id="Group 1">
<path id="Vector 7" d="M182.508 193.729C182.662 198.304 182.864 207.095 182.573 209.56C182.538 209.854 182.53 210.151 182.588 210.441L183.365 214.327C183.453 214.763 183.419 215.249 183.552 215.673C183.742 216.275 184.326 217.326 186 219L188.802 221.802C188.934 221.934 189.082 222.046 189.245 222.136L193.139 224.299C193.377 224.432 193.64 224.514 193.911 224.541L198.351 224.985C198.45 224.995 198.55 224.997 198.65 224.993L208.5 224.5L225.5 222L239 219L249 216L254.323 213.58C254.441 213.527 254.553 213.462 254.658 213.387L257.702 211.213C257.899 211.072 258.069 210.897 258.203 210.695L259.851 208.223C259.95 208.075 260.028 207.915 260.085 207.746L260.897 205.308C260.965 205.104 261 204.89 261 204.675V201V172.5V166V162.369C261 160.851 259.375 159.886 258.042 160.613L255.5 162L251 164L246 166L239 168L232 170L225.5 171.5L219.5 172.5L213.5 174L208 175L202.5 176.5L197.5 177.5L193.226 178.925C193.076 178.975 192.932 179.042 192.798 179.126L189.193 181.379C189.065 181.46 188.946 181.554 188.839 181.661L186.161 184.339C186.054 184.446 185.96 184.565 185.879 184.693L183.694 188.19C183.566 188.395 183.476 188.621 183.428 188.858L182.546 193.272C182.515 193.423 182.503 193.574 182.508 193.729Z" fill="#22C55E" stroke="#22C55E"/>
<path id="Vector 6" d="M213.773 74.6327L210.071 76.7917C208.993 77.4207 208.748 78.873 209.561 79.8208L211 81.5L213.868 84.8465C213.956 84.9486 214.033 85.0592 214.098 85.1768L216.5 89.5L219.5 94.5L222.5 100.5L224.5 106L226.5 111.5L227.5 116L229 125L229.5 133.5V139.144C229.5 140.191 230.307 141.061 231.35 141.139L247.211 142.328C248.421 142.419 249.433 141.42 249.357 140.209L249 134.5L248.5 129.5L248 125.5L247.5 121.5L247 117.5V114V106.5V101V96.5V93.6655C247 93.5554 246.991 93.4454 246.973 93.3367L246.5 90.5L246.068 88.3397C246.023 88.1149 245.94 87.8995 245.822 87.7029L244.5 85.5L241.657 80.7625C241.553 80.5885 241.423 80.4314 241.271 80.2966L237.226 76.7008C237.076 76.5677 236.907 76.4578 236.725 76.3749L231.739 74.1088C231.58 74.0366 231.413 73.9855 231.241 73.9568L225.663 73.0272C225.555 73.0091 225.445 73 225.334 73H219.768C219.59 73 219.413 73.0237 219.242 73.0705L214.254 74.4307C214.085 74.4767 213.924 74.5446 213.773 74.6327Z" fill="#152344" stroke="#152344"/>
<path id="Vector 5" d="M157.5 112L138.065 122.18C137.171 122.648 136.766 123.709 137.12 124.654L138 127L139 131L139.923 134.231C139.974 134.409 140 134.594 140 134.78V136.56C140 137.641 140.859 138.526 141.939 138.559L219.76 140.932C220.954 140.968 221.913 139.957 221.814 138.767L221.5 135L220.5 129L219 121L217.033 112.149C217.011 112.05 216.982 111.952 216.945 111.858L213.5 103L210.5 95L207 87.5L204.668 83.5015C204.052 82.4469 202.644 82.1848 201.691 82.9475L188.5 93.5L175.5 102L157.5 112Z" fill="#FACC15" stroke="#FACC15"/>
<g id="Vector 3">
<path fill-rule="evenodd" clip-rule="evenodd" d="M118.266 121.367C118.091 121.455 117.922 121.561 117.768 121.681C117.923 121.56 118.09 121.455 118.266 121.367ZM113.92 124.673C113.643 124.889 113.405 125.152 113.219 125.449C113.406 125.152 113.643 124.889 113.92 124.673ZM111.211 128.663C111.071 128.887 110.961 129.13 110.885 129.383C110.962 129.129 111.071 128.887 111.211 128.663Z" fill="#0EA5E9"/>
<path d="M42 107L40 113.5L39.313 117.279C39.1196 118.342 39.5135 119.428 40.344 120.12L41.8075 121.34C41.9356 121.446 42.0724 121.542 42.2164 121.626L47.7801 124.872C47.9264 124.957 48.0797 125.03 48.2384 125.089L56 128L65 130.5L74 132.5L83 134L92.7787 135.467C92.926 135.489 93.0748 135.5 93.2237 135.5H100H105.384C105.791 135.5 106.193 135.417 106.566 135.257L108.211 134.552C109.028 134.202 109.648 133.508 109.903 132.657L110.884 129.386L110.885 129.383C110.961 129.13 111.071 128.887 111.211 128.663L111.214 128.658L113.218 125.451L113.219 125.449C113.405 125.152 113.643 124.889 113.92 124.673L117.766 121.682L117.768 121.681C117.922 121.561 118.091 121.455 118.266 121.367L121.342 119.829C122.358 119.321 123 118.282 123 117.146V60V53V49.5C123 47.8431 121.657 46.5 120 46.5H117H111.44C111.148 46.5 110.858 46.5426 110.578 46.6265L106 48L100 49.5L91 53L83 57L76.2547 60.8545C76.0853 60.9513 75.9258 61.0643 75.7783 61.1921L68.5 67.5L62.1761 73.3375C62.0589 73.4457 61.9505 73.563 61.852 73.6884L56.5 80.5L51.5 87.5L48 94L44.5 101L42 107Z" fill="#0EA5E9"/>
<path d="M123 60V53V49.5M123 60C123 82.3169 123 94.829 123 117.146M123 60V117.146M39.313 117.279L40 113.5L42 107L44.5 101L48 94L51.5 87.5L56.5 80.5L61.852 73.6884M39.313 117.279C39.1196 118.342 39.5135 119.428 40.344 120.12M39.313 117.279C39.1196 118.342 39.5135 119.428 40.344 120.12M40.344 120.12L41.8075 121.34M41.8075 121.34C41.9356 121.446 42.0724 121.542 42.2164 121.626M41.8075 121.34C41.9356 121.446 42.0724 121.542 42.2164 121.626M42.2164 121.626L47.7801 124.872M47.7801 124.872C47.9264 124.957 48.0797 125.03 48.2384 125.089M47.7801 124.872C47.9264 124.957 48.0798 125.03 48.2384 125.089M48.2384 125.089L56 128L65 130.5L74 132.5L83 134L92.7787 135.467M92.7787 135.467C92.926 135.489 93.0748 135.5 93.2237 135.5M92.7787 135.467C92.926 135.489 93.0748 135.5 93.2237 135.5M93.2237 135.5H100H105.384M105.384 135.5C105.791 135.5 106.193 135.417 106.566 135.257M105.384 135.5C105.79 135.5 106.193 135.417 106.566 135.257M106.566 135.257L108.211 134.552M108.211 134.552C109.028 134.202 109.648 133.508 109.903 132.657M108.211 134.552C109.028 134.202 109.648 133.508 109.903 132.657M109.903 132.657L110.884 129.386L110.885 129.383M113.92 124.673L117.766 121.682L117.768 121.681M113.92 124.673C113.643 124.889 113.406 125.152 113.219 125.449M113.92 124.673C113.643 124.889 113.405 125.152 113.219 125.449M118.266 121.367L121.342 119.829M118.266 121.367C118.09 121.455 117.923 121.56 117.768 121.681M118.266 121.367C118.091 121.455 117.922 121.561 117.768 121.681M121.342 119.829C122.358 119.321 123 118.282 123 117.146M121.342 119.829C122.358 119.321 123 118.282 123 117.146M123 49.5C123 47.8431 121.657 46.5 120 46.5M123 49.5C123 47.8431 121.657 46.5 120 46.5M120 46.5H117H111.44M111.44 46.5C111.148 46.5 110.858 46.5426 110.578 46.6265M111.44 46.5C111.148 46.5 110.858 46.5426 110.578 46.6265M110.578 46.6265L106 48L100 49.5L91 53L83 57L76.2547 60.8545M76.2547 60.8545C76.0853 60.9513 75.9258 61.0643 75.7783 61.1921M76.2547 60.8545C76.0853 60.9513 75.9258 61.0643 75.7783 61.1921M75.7783 61.1921L68.5 67.5L62.1761 73.3375M62.1761 73.3375C62.0589 73.4457 61.9505 73.563 61.852 73.6884M62.1761 73.3375C62.0589 73.4457 61.9505 73.563 61.852 73.6884M113.219 125.449L113.218 125.451L111.214 128.658L111.211 128.663M111.211 128.663C111.071 128.887 110.962 129.129 110.885 129.383M111.211 128.663C111.071 128.887 110.961 129.13 110.885 129.383" stroke="#0EA5E9"/>
</g>
<path id="Vector 1" d="M77.7196 140.418L44.2237 130.566C44.0748 130.522 43.9295 130.467 43.7892 130.4L26.3688 122.174C26.1241 122.059 25.8961 121.91 25.691 121.734L11.6955 109.669C11.5654 109.556 11.4452 109.433 11.3362 109.301L5.31818 101.974C3.53047 99.798 0 101.062 0 103.879V220.729C0 220.909 0.0161954 221.089 0.0483903 221.266L1.93675 231.652C1.97877 231.883 2.0478 232.109 2.14241 232.324L7.32103 244.093C7.4397 244.363 7.59533 244.611 7.78963 244.833C9.0398 246.258 14.087 251.891 18 254.5C22.5 257.5 32.5 261.5 32.5 261.5L44 265L55.5 267.5L70 269.5H199H211.762C211.92 269.5 212.079 269.487 212.235 269.462L224.149 267.556C224.382 267.519 224.61 267.454 224.828 267.363L230.261 265.099C230.42 265.033 230.573 264.954 230.718 264.861L235.797 261.629C235.932 261.543 236.06 261.447 236.18 261.34L240.5 257.5L244.959 253.041C245.314 252.686 245.574 252.248 245.716 251.766L247.935 244.221C247.978 244.074 248.01 243.924 248.03 243.771L249 236.5V230V224.442C249 223.531 248.586 222.669 247.874 222.099L247.774 222.02C246.98 221.384 245.917 221.194 244.952 221.516L240.5 223L232 226L222.5 228L212.278 229.947C212.093 229.982 211.905 230 211.717 230H205H197H191.137C190.717 230 190.302 229.912 189.918 229.741L186.442 228.196C186.149 228.066 185.879 227.89 185.642 227.675L180.915 223.377C180.641 223.128 180.415 222.83 180.249 222.499L177.817 217.633C177.608 217.217 177.5 216.758 177.5 216.292V209V201V191.44C177.5 191.148 177.543 190.858 177.627 190.578L178.926 186.248C178.975 186.083 179.039 185.923 179.116 185.768L181.318 181.363C181.439 181.122 181.591 180.898 181.772 180.698L185.647 176.392C185.881 176.133 186.157 175.916 186.465 175.752L193.096 172.216C193.364 172.073 193.652 171.971 193.95 171.915L212 168.5L228.5 164.5L240.5 161.5L247.487 159.637C247.826 159.546 248.147 159.397 248.435 159.196L250.714 157.6C251.985 156.711 252.313 154.969 251.452 153.678C251.157 153.235 250.743 152.883 250.258 152.663L245.831 150.65C245.611 150.551 245.38 150.477 245.143 150.433L237.5 149L232.215 148.039C232.072 148.013 231.927 147.997 231.782 147.992L116 144L78.291 140.527C78.0975 140.509 77.9061 140.472 77.7196 140.418Z" fill="url(#paint0_linear_2_101)"/>
<path id="Vector 2" d="M10 95L7.70809 89.6522C7.27216 88.635 7.4316 87.4605 8.12291 86.5964L9 85.5L12.7389 81.7611C12.9123 81.5877 13.1064 81.4362 13.3167 81.31L17.6609 78.7035C17.886 78.5684 18.1278 78.4635 18.3802 78.3914L25 76.5L30 75.5L37.1035 74.5529C37.3667 74.5178 37.6333 74.5178 37.8965 74.5529L45 75.5C47.2165 75.5 48.4488 78.064 47.0642 79.7948L46.5 80.5L42.6377 85.3279C42.546 85.4425 42.4629 85.5636 42.389 85.6904L39 91.5L35.5 98.5L32.5 104L30.218 109.477C30.0741 109.822 30 110.193 30 110.567C30 112.754 27.6277 114.116 25.7387 113.014L24.2164 112.126C24.0724 112.042 23.9356 111.946 23.8075 111.84L18.22 107.183C18.0737 107.061 17.9393 106.926 17.8187 106.778L13.6827 101.723C13.5612 101.575 13.4542 101.415 13.3632 101.246L10 95Z" fill="#152344" stroke="#152344"/>
<path id="Vector 4" d="M130.5 48.5V112.811C130.5 115.001 132.769 116.453 134.757 115.535L137 114.5L151 107.5L169 97.5L187.5 86L203.5 73L216.787 61.6813C216.929 61.5607 217.059 61.4272 217.176 61.2825L225.842 50.5532C226.79 49.3792 228.463 49.0923 229.748 49.8832L236.285 53.906C238.203 55.0867 240.69 53.8102 240.85 51.5629L244.154 4.88833C244.312 2.65262 242.052 1.03916 239.989 1.915L197.572 19.9222C195.202 20.9285 195.117 24.2571 197.434 25.3822L205.645 29.3703C207.368 30.2074 207.876 32.4238 206.689 33.9277L201.5 40.5L195.5 46.5L191.5 51L187.5 54.5L183.209 58.3139C183.07 58.4377 182.92 58.5483 182.76 58.6441L182.128 59.0232C181.134 59.6197 179.885 59.59 178.92 58.9469L177.5 58L175 56.5L171.5 54.5L167 52.5L164.191 51.0953C164.064 51.0319 163.932 50.9775 163.798 50.9326L159.5 49.5L155 48.5L151 47.5L148 47L146.358 46.5896C146.12 46.5301 145.876 46.5 145.631 46.5H144.869C144.624 46.5 144.38 46.4699 144.142 46.4104L142.858 46.0896C142.62 46.0301 142.376 46 142.131 46H140.869C140.624 46 140.38 45.9699 140.142 45.9104L138.858 45.5896C138.62 45.5301 138.376 45.5 138.131 45.5H134H133.5C131.843 45.5 130.5 46.8431 130.5 48.5Z" fill="#22C55E" stroke="#22C55E"/>
<path id="&#226;&#130;&#185;" d="M233.193 190.511L232.185 194.233H213.335L214.358 190.511H233.193ZM223.719 212.5L213.776 200.54L213.761 197.386H218.676C219.85 197.386 220.83 197.192 221.616 196.804C222.412 196.406 223.013 195.852 223.42 195.142C223.837 194.422 224.045 193.58 224.045 192.614C224.045 191.165 223.619 190 222.767 189.119C221.915 188.239 220.551 187.798 218.676 187.798H213.335L214.443 183.409H218.676C221.062 183.409 223.037 183.778 224.599 184.517C226.171 185.246 227.346 186.278 228.122 187.614C228.908 188.949 229.301 190.511 229.301 192.301C229.301 193.883 229.012 195.294 228.435 196.534C227.857 197.775 226.948 198.793 225.707 199.588C224.467 200.384 222.843 200.914 220.835 201.179L220.665 201.236L229.642 212.244V212.5H223.719ZM233.222 183.409L232.185 187.187L216.901 187.131L217.937 183.409H233.222Z" fill="white"/>
</g>
<defs>
<linearGradient id="paint0_linear_2_101" x1="126.5" y1="95.5" x2="126.5" y2="269.5" gradientUnits="userSpaceOnUse">
<stop stop-color="#2563EB"/>
<stop offset="1" stop-color="#10B981" stop-opacity="0"/>
</linearGradient>
</defs>
</svg>
