<svg width="323" height="375" viewBox="0 0 323 375" fill="none" xmlns="http://www.w3.org/2000/svg">
<g id="Group 1">
<path id="Vector 7" d="M216.508 193.729C216.662 198.304 216.864 207.095 216.573 209.56C216.538 209.854 216.53 210.151 216.588 210.441L217.365 214.327C217.453 214.763 217.419 215.249 217.552 215.673C217.742 216.275 218.326 217.326 220 219L222.802 221.802C222.934 221.934 223.082 222.046 223.245 222.136L227.139 224.299C227.377 224.432 227.64 224.514 227.911 224.541L232.351 224.985C232.45 224.995 232.55 224.997 232.65 224.993L242.5 224.5L259.5 222L273 219L283 216L288.323 213.58C288.441 213.527 288.553 213.462 288.658 213.387L291.702 211.213C291.899 211.072 292.069 210.897 292.203 210.695L293.851 208.223C293.95 208.075 294.028 207.915 294.085 207.746L294.897 205.308C294.965 205.104 295 204.89 295 204.675V201V172.5V166V162.369C295 160.851 293.375 159.886 292.042 160.613L289.5 162L285 164L280 166L273 168L266 170L259.5 171.5L253.5 172.5L247.5 174L242 175L236.5 176.5L231.5 177.5L227.226 178.925C227.076 178.975 226.932 179.042 226.798 179.126L223.193 181.379C223.065 181.46 222.946 181.554 222.839 181.661L220.161 184.339C220.054 184.446 219.96 184.565 219.879 184.693L217.694 188.19C217.566 188.395 217.476 188.621 217.428 188.858L216.546 193.272C216.515 193.423 216.503 193.574 216.508 193.729Z" fill="#22C55E" stroke="#22C55E"/>
<path id="Vector 6" d="M247.773 74.6327L244.071 76.7917C242.993 77.4207 242.748 78.873 243.561 79.8208L245 81.5L247.868 84.8465C247.956 84.9486 248.033 85.0592 248.098 85.1768L250.5 89.5L253.5 94.5L256.5 100.5L258.5 106L260.5 111.5L261.5 116L263 125L263.5 133.5V139.144C263.5 140.191 264.307 141.061 265.35 141.139L281.211 142.328C282.421 142.419 283.433 141.42 283.357 140.209L283 134.5L282.5 129.5L282 125.5L281.5 121.5L281 117.5V114V106.5V101V96.5V93.6655C281 93.5554 280.991 93.4454 280.973 93.3367L280.5 90.5L280.068 88.3397C280.023 88.1149 279.94 87.8995 279.822 87.7029L278.5 85.5L275.657 80.7625C275.553 80.5885 275.423 80.4314 275.271 80.2966L271.226 76.7008C271.076 76.5677 270.907 76.4578 270.725 76.3749L265.739 74.1088C265.58 74.0366 265.413 73.9855 265.241 73.9568L259.663 73.0272C259.555 73.0091 259.445 73 259.334 73H253.768C253.59 73 253.413 73.0237 253.242 73.0705L248.254 74.4307C248.085 74.4767 247.924 74.5446 247.773 74.6327Z" fill="#152344" stroke="#152344"/>
<path id="Vector 5" d="M191.5 112L172.065 122.18C171.171 122.648 170.766 123.709 171.12 124.654L172 127L173 131L173.923 134.231C173.974 134.409 174 134.594 174 134.78V136.56C174 137.641 174.859 138.526 175.939 138.559L253.76 140.932C254.954 140.968 255.913 139.957 255.814 138.767L255.5 135L254.5 129L253 121L251.033 112.149C251.011 112.05 250.982 111.952 250.945 111.858L247.5 103L244.5 95L241 87.5L238.668 83.5015C238.052 82.4469 236.644 82.1848 235.691 82.9475L222.5 93.5L209.5 102L191.5 112Z" fill="#FACC15" stroke="#FACC15"/>
<g id="Vector 3">
<path fill-rule="evenodd" clip-rule="evenodd" d="M152.266 121.367C152.091 121.455 151.922 121.561 151.768 121.681C151.923 121.56 152.09 121.455 152.266 121.367ZM147.92 124.673C147.643 124.889 147.405 125.152 147.219 125.449C147.406 125.152 147.643 124.889 147.92 124.673ZM145.211 128.663C145.071 128.887 144.961 129.13 144.885 129.383C144.962 129.129 145.071 128.887 145.211 128.663Z" fill="#0EA5E9"/>
<path d="M76 107L74 113.5L73.313 117.279C73.1196 118.342 73.5135 119.428 74.344 120.12L75.8075 121.34C75.9356 121.446 76.0724 121.542 76.2164 121.626L81.7801 124.872C81.9264 124.957 82.0797 125.03 82.2384 125.089L90 128L99 130.5L108 132.5L117 134L126.779 135.467C126.926 135.489 127.075 135.5 127.224 135.5H134H139.384C139.791 135.5 140.193 135.417 140.566 135.257L142.211 134.552C143.028 134.202 143.648 133.508 143.903 132.657L144.884 129.386L144.885 129.383C144.961 129.13 145.071 128.887 145.211 128.663L145.214 128.658L147.218 125.451L147.219 125.449C147.405 125.152 147.643 124.889 147.92 124.673L151.766 121.682L151.768 121.681C151.922 121.561 152.091 121.455 152.266 121.367L155.342 119.829C156.358 119.321 157 118.282 157 117.146V60V53V49.5C157 47.8431 155.657 46.5 154 46.5H151H145.44C145.148 46.5 144.858 46.5426 144.578 46.6265L140 48L134 49.5L125 53L117 57L110.255 60.8545C110.085 60.9513 109.926 61.0643 109.778 61.1921L102.5 67.5L96.1761 73.3375C96.0589 73.4457 95.9505 73.563 95.852 73.6884L90.5 80.5L85.5 87.5L82 94L78.5 101L76 107Z" fill="#0EA5E9"/>
<path d="M157 60V53V49.5M157 60C157 82.3169 157 94.829 157 117.146M157 60V117.146M73.313 117.279L74 113.5L76 107L78.5 101L82 94L85.5 87.5L90.5 80.5L95.852 73.6884M73.313 117.279C73.1196 118.342 73.5135 119.428 74.344 120.12M73.313 117.279C73.1196 118.342 73.5135 119.428 74.344 120.12M74.344 120.12L75.8075 121.34M75.8075 121.34C75.9356 121.446 76.0724 121.542 76.2164 121.626M75.8075 121.34C75.9356 121.446 76.0724 121.542 76.2164 121.626M76.2164 121.626L81.7801 124.872M81.7801 124.872C81.9264 124.957 82.0797 125.03 82.2384 125.089M81.7801 124.872C81.9264 124.957 82.0798 125.03 82.2384 125.089M82.2384 125.089L90 128L99 130.5L108 132.5L117 134L126.779 135.467M126.779 135.467C126.926 135.489 127.075 135.5 127.224 135.5M126.779 135.467C126.926 135.489 127.075 135.5 127.224 135.5M127.224 135.5H134H139.384M139.384 135.5C139.791 135.5 140.193 135.417 140.566 135.257M139.384 135.5C139.79 135.5 140.193 135.417 140.566 135.257M140.566 135.257L142.211 134.552M142.211 134.552C143.028 134.202 143.648 133.508 143.903 132.657M142.211 134.552C143.028 134.202 143.648 133.508 143.903 132.657M143.903 132.657L144.884 129.386L144.885 129.383M147.92 124.673L151.766 121.682L151.768 121.681M147.92 124.673C147.643 124.889 147.406 125.152 147.219 125.449M147.92 124.673C147.643 124.889 147.405 125.152 147.219 125.449M152.266 121.367L155.342 119.829M152.266 121.367C152.09 121.455 151.923 121.56 151.768 121.681M152.266 121.367C152.091 121.455 151.922 121.561 151.768 121.681M155.342 119.829C156.358 119.321 157 118.282 157 117.146M155.342 119.829C156.358 119.321 157 118.282 157 117.146M157 49.5C157 47.8431 155.657 46.5 154 46.5M157 49.5C157 47.8431 155.657 46.5 154 46.5M154 46.5H151H145.44M145.44 46.5C145.148 46.5 144.858 46.5426 144.578 46.6265M145.44 46.5C145.148 46.5 144.858 46.5426 144.578 46.6265M144.578 46.6265L140 48L134 49.5L125 53L117 57L110.255 60.8545M110.255 60.8545C110.085 60.9513 109.926 61.0643 109.778 61.1921M110.255 60.8545C110.085 60.9513 109.926 61.0643 109.778 61.1921M109.778 61.1921L102.5 67.5L96.1761 73.3375M96.1761 73.3375C96.0589 73.4457 95.9505 73.563 95.852 73.6884M96.1761 73.3375C96.0589 73.4457 95.9505 73.563 95.852 73.6884M147.219 125.449L147.218 125.451L145.214 128.658L145.211 128.663M145.211 128.663C145.071 128.887 144.962 129.129 144.885 129.383M145.211 128.663C145.071 128.887 144.961 129.13 144.885 129.383" stroke="#0EA5E9"/>
</g>
<path id="Vector 1" d="M111.72 140.418L78.2237 130.566C78.0748 130.522 77.9295 130.467 77.7892 130.4L60.3688 122.174C60.1241 122.059 59.8961 121.91 59.691 121.734L45.6955 109.669C45.5654 109.556 45.4452 109.433 45.3362 109.301L39.3182 101.974C37.5305 99.798 34 101.062 34 103.879V220.729C34 220.909 34.0162 221.089 34.0484 221.266L35.9367 231.652C35.9788 231.883 36.0478 232.109 36.1424 232.324L41.321 244.093C41.4397 244.363 41.5953 244.611 41.7896 244.833C43.0398 246.258 48.087 251.891 52 254.5C56.5 257.5 66.5 261.5 66.5 261.5L78 265L89.5 267.5L104 269.5H233H245.762C245.92 269.5 246.079 269.487 246.235 269.462L258.149 267.556C258.382 267.519 258.61 267.454 258.828 267.363L264.261 265.099C264.42 265.033 264.573 264.954 264.718 264.861L269.797 261.629C269.932 261.543 270.06 261.447 270.18 261.34L274.5 257.5L278.959 253.041C279.314 252.686 279.574 252.248 279.716 251.766L281.935 244.221C281.978 244.074 282.01 243.924 282.03 243.771L283 236.5V230V224.442C283 223.531 282.586 222.669 281.874 222.099L281.774 222.02C280.98 221.384 279.917 221.194 278.952 221.516L274.5 223L266 226L256.5 228L246.278 229.947C246.093 229.982 245.905 230 245.717 230H239H231H225.137C224.717 230 224.302 229.912 223.918 229.741L220.442 228.196C220.149 228.066 219.879 227.89 219.642 227.675L214.915 223.377C214.641 223.128 214.415 222.83 214.249 222.499L211.817 217.633C211.608 217.217 211.5 216.758 211.5 216.292V209V201V191.44C211.5 191.148 211.543 190.858 211.627 190.578L212.926 186.248C212.975 186.083 213.039 185.923 213.116 185.768L215.318 181.363C215.439 181.122 215.591 180.898 215.772 180.698L219.647 176.392C219.881 176.133 220.157 175.916 220.465 175.752L227.096 172.216C227.364 172.073 227.652 171.971 227.95 171.915L246 168.5L262.5 164.5L274.5 161.5L281.487 159.637C281.826 159.546 282.147 159.397 282.435 159.196L284.714 157.6C285.985 156.711 286.313 154.969 285.452 153.678C285.157 153.235 284.743 152.883 284.258 152.663L279.831 150.65C279.611 150.551 279.38 150.477 279.143 150.433L271.5 149L266.215 148.039C266.072 148.013 265.927 147.997 265.782 147.992L150 144L112.291 140.527C112.097 140.509 111.906 140.472 111.72 140.418Z" fill="url(#paint0_linear_2_101)"/>
<path id="Vector 2" d="M44 95L41.7081 89.6522C41.2722 88.635 41.4316 87.4605 42.1229 86.5964L43 85.5L46.7389 81.7611C46.9123 81.5877 47.1064 81.4362 47.3167 81.31L51.6609 78.7035C51.886 78.5684 52.1278 78.4635 52.3802 78.3914L59 76.5L64 75.5L71.1035 74.5529C71.3667 74.5178 71.6333 74.5178 71.8965 74.5529L79 75.5C81.2165 75.5 82.4488 78.064 81.0642 79.7948L80.5 80.5L76.6377 85.3279C76.546 85.4425 76.4629 85.5636 76.389 85.6904L73 91.5L69.5 98.5L66.5 104L64.218 109.477C64.0741 109.822 64 110.193 64 110.567C64 112.754 61.6277 114.116 59.7387 113.014L58.2164 112.126C58.0724 112.042 57.9356 111.946 57.8075 111.84L52.22 107.183C52.0737 107.061 51.9393 106.926 51.8187 106.778L47.6827 101.723C47.5612 101.575 47.4542 101.415 47.3632 101.246L44 95Z" fill="#152344" stroke="#152344"/>
<path id="Vector 4" d="M164.5 48.5V112.811C164.5 115.001 166.769 116.453 168.757 115.535L171 114.5L185 107.5L203 97.5L221.5 86L237.5 73L250.787 61.6813C250.929 61.5607 251.059 61.4272 251.176 61.2825L259.842 50.5532C260.79 49.3792 262.463 49.0923 263.748 49.8832L270.285 53.906C272.203 55.0867 274.69 53.8102 274.85 51.5629L278.154 4.88833C278.312 2.65262 276.052 1.03916 273.989 1.915L231.572 19.9222C229.202 20.9285 229.117 24.2571 231.434 25.3822L239.645 29.3703C241.368 30.2074 241.876 32.4238 240.689 33.9277L235.5 40.5L229.5 46.5L225.5 51L221.5 54.5L217.209 58.3139C217.07 58.4377 216.92 58.5483 216.76 58.6441L216.128 59.0232C215.134 59.6197 213.885 59.59 212.92 58.9469L211.5 58L209 56.5L205.5 54.5L201 52.5L198.191 51.0953C198.064 51.0319 197.932 50.9775 197.798 50.9326L193.5 49.5L189 48.5L185 47.5L182 47L180.358 46.5896C180.12 46.5301 179.876 46.5 179.631 46.5H178.869C178.624 46.5 178.38 46.4699 178.142 46.4104L176.858 46.0896C176.62 46.0301 176.376 46 176.131 46H174.869C174.624 46 174.38 45.9699 174.142 45.9104L172.858 45.5896C172.62 45.5301 172.376 45.5 172.131 45.5H168H167.5C165.843 45.5 164.5 46.8431 164.5 48.5Z" fill="#22C55E" stroke="#22C55E"/>
<g id="Spend IQ">
<path id="Vector" d="M294.46 340.467H303.409L308.709 347.339L312.491 351.813L321.573 363.479H311.985L305.806 355.648L303.169 351.92L294.46 340.467ZM322.878 331.518C322.878 337.396 321.777 342.429 319.576 346.62C317.392 350.792 314.409 353.988 310.627 356.208C306.863 358.427 302.592 359.537 297.816 359.537C293.04 359.537 288.761 358.427 284.979 356.208C281.214 353.971 278.232 350.766 276.03 346.593C273.846 342.403 272.754 337.378 272.754 331.518C272.754 325.641 273.846 320.616 276.03 316.444C278.232 312.254 281.214 309.049 284.979 306.829C288.761 304.61 293.04 303.5 297.816 303.5C302.592 303.5 306.863 304.61 310.627 306.829C314.409 309.049 317.392 312.254 319.576 316.444C321.777 320.616 322.878 325.641 322.878 331.518ZM312.944 331.518C312.944 327.381 312.296 323.892 311 321.051C309.721 318.193 307.946 316.036 305.673 314.58C303.4 313.106 300.781 312.369 297.816 312.369C294.851 312.369 292.232 313.106 289.959 314.58C287.686 316.036 285.902 318.193 284.606 321.051C283.327 323.892 282.688 327.381 282.688 331.518C282.688 335.656 283.327 339.153 284.606 342.012C285.902 344.853 287.686 347.01 289.959 348.484C292.232 349.94 294.851 350.668 297.816 350.668C300.781 350.668 303.4 349.94 305.673 348.484C307.946 347.01 309.721 344.853 311 342.012C312.296 339.153 312.944 335.656 312.944 331.518Z" fill="#22C55E"/>
<path id="Vector_2" d="M263.439 304.246V358.791H253.558V304.246H263.439Z" fill="#22C55E"/>
<path id="Vector_3" d="M202.468 359.51C199.254 359.51 196.378 358.685 193.839 357.033C191.3 355.382 189.293 352.985 187.82 349.842C186.346 346.7 185.609 342.882 185.609 338.39C185.609 333.844 186.355 330.009 187.846 326.884C189.355 323.741 191.388 321.371 193.945 319.773C196.502 318.157 199.352 317.349 202.495 317.349C204.892 317.349 206.863 317.758 208.407 318.575C209.952 319.374 211.177 320.341 212.083 321.478C212.988 322.596 213.69 323.653 214.187 324.647H214.586V304.246H224.254V358.791H214.773V352.346H214.187C213.69 353.34 212.971 354.397 212.029 355.515C211.088 356.616 209.846 357.557 208.301 358.338C206.756 359.12 204.812 359.51 202.468 359.51ZM205.158 351.6C207.2 351.6 208.94 351.05 210.378 349.949C211.816 348.83 212.908 347.277 213.654 345.288C214.4 343.299 214.773 340.982 214.773 338.337C214.773 335.691 214.4 333.392 213.654 331.439C212.926 329.485 211.843 327.967 210.405 326.884C208.984 325.801 207.235 325.26 205.158 325.26C203.01 325.26 201.216 325.819 199.778 326.938C198.34 328.056 197.257 329.601 196.529 331.572C195.801 333.543 195.437 335.798 195.437 338.337C195.437 340.893 195.801 343.175 196.529 345.181C197.274 347.17 198.366 348.741 199.805 349.896C201.261 351.032 203.045 351.6 205.158 351.6Z" fill="#152344"/>
<path id="Vector_4" d="M151.225 334.821V358.791H141.584V317.882H150.799V324.833H151.278C152.22 322.543 153.72 320.723 155.78 319.374C157.857 318.024 160.423 317.349 163.477 317.349C166.3 317.349 168.759 317.953 170.854 319.161C172.967 320.368 174.601 322.117 175.755 324.407C176.927 326.698 177.504 329.477 177.486 332.744V358.791H167.845V334.235C167.845 331.501 167.134 329.361 165.714 327.816C164.311 326.272 162.367 325.499 159.881 325.499C158.194 325.499 156.694 325.872 155.38 326.618C154.084 327.346 153.063 328.402 152.317 329.787C151.589 331.172 151.225 332.85 151.225 334.821Z" fill="#152344"/>
<path id="Vector_5" d="M115.237 359.59C111.135 359.59 107.593 358.738 104.61 357.033C101.645 355.311 99.3631 352.879 97.7651 349.736C96.167 346.575 95.368 342.855 95.368 338.576C95.368 334.368 96.167 330.675 97.7651 327.497C99.3808 324.301 101.636 321.815 104.53 320.039C107.424 318.246 110.824 317.349 114.731 317.349C117.252 317.349 119.631 317.758 121.868 318.575C124.123 319.374 126.112 320.616 127.834 322.303C129.574 323.99 130.942 326.139 131.936 328.749C132.93 331.341 133.427 334.43 133.427 338.017V340.973H99.8957V334.475H124.186C124.168 332.628 123.768 330.986 122.987 329.548C122.206 328.092 121.114 326.946 119.711 326.112C118.326 325.277 116.71 324.86 114.864 324.86C112.893 324.86 111.162 325.339 109.67 326.298C108.179 327.239 107.016 328.482 106.181 330.027C105.364 331.554 104.947 333.232 104.929 335.061V340.734C104.929 343.113 105.364 345.155 106.235 346.859C107.105 348.546 108.321 349.842 109.883 350.748C111.446 351.636 113.275 352.08 115.37 352.08C116.773 352.08 118.042 351.884 119.178 351.494C120.315 351.085 121.3 350.49 122.135 349.709C122.969 348.928 123.6 347.96 124.026 346.806L133.028 347.818C132.46 350.197 131.377 352.275 129.779 354.05C128.198 355.808 126.174 357.175 123.706 358.152C121.238 359.111 118.415 359.59 115.237 359.59Z" fill="#152344"/>
<path id="Vector_6" d="M50.2509 374.132V317.882H59.7324V324.647H60.2917C60.7889 323.653 61.4902 322.596 62.3957 321.478C63.3013 320.341 64.5264 319.374 66.0712 318.575C67.6159 317.758 69.5868 317.349 71.9838 317.349C75.1443 317.349 77.9941 318.157 80.5332 319.773C83.09 321.371 85.1141 323.741 86.6056 326.884C88.1148 330.009 88.8695 333.844 88.8695 338.39C88.8695 342.882 88.1326 346.7 86.6589 349.842C85.1852 352.985 83.1788 355.382 80.6397 357.033C78.1006 358.685 75.2242 359.51 72.0104 359.51C69.6667 359.51 67.7224 359.12 66.1777 358.338C64.633 357.557 63.3901 356.616 62.449 355.515C61.5257 354.397 60.8066 353.34 60.2917 352.346H59.8922V374.132H50.2509ZM59.7058 338.337C59.7058 340.982 60.0786 343.299 60.8244 345.288C61.5879 347.277 62.6798 348.83 64.1003 349.949C65.5385 351.05 67.2786 351.6 69.3205 351.6C71.4511 351.6 73.2356 351.032 74.6738 349.896C76.112 348.741 77.1951 347.17 77.9231 345.181C78.6688 343.175 79.0417 340.893 79.0417 338.337C79.0417 335.798 78.6777 333.543 77.9497 331.572C77.2217 329.601 76.1386 328.056 74.7004 326.938C73.2622 325.819 71.4689 325.26 69.3205 325.26C67.2608 325.26 65.5119 325.801 64.0737 326.884C62.6354 327.967 61.5435 329.485 60.7977 331.439C60.0697 333.392 59.7058 335.691 59.7058 338.337Z" fill="#152344"/>
<path id="Vector_7" d="M31.614 319.24C31.3654 316.914 30.3178 315.103 28.4712 313.807C26.6424 312.511 24.2631 311.863 21.3335 311.863C19.2738 311.863 17.5071 312.174 16.0334 312.795C14.5597 313.417 13.4322 314.26 12.6509 315.325C11.8697 316.391 11.4702 317.607 11.4524 318.974C11.4524 320.11 11.7099 321.096 12.2248 321.93C12.7575 322.765 13.4766 323.475 14.3821 324.061C15.2876 324.629 16.2908 325.109 17.3917 325.499C18.4925 325.89 19.6023 326.218 20.7209 326.485L25.8345 327.763C27.8942 328.243 29.8739 328.891 31.7738 329.707C33.6914 330.524 35.4048 331.554 36.9141 332.797C38.4411 334.04 39.6484 335.54 40.5362 337.298C41.424 339.056 41.8679 341.115 41.8679 343.477C41.8679 346.673 41.0511 349.487 39.4176 351.92C37.7841 354.335 35.4226 356.225 32.3331 357.593C29.2614 358.942 25.5415 359.617 21.1737 359.617C16.93 359.617 13.2457 358.96 10.1207 357.646C7.01349 356.332 4.58097 354.414 2.82315 351.893C1.0831 349.372 0.142045 346.3 0 342.678H9.72124C9.86328 344.578 10.4492 346.158 11.479 347.419C12.5089 348.679 13.8494 349.62 15.5007 350.242C17.1697 350.863 19.0341 351.174 21.0938 351.174C23.2422 351.174 25.1243 350.854 26.7401 350.215C28.3736 349.558 29.652 348.653 30.5753 347.499C31.4986 346.327 31.9691 344.96 31.9869 343.397C31.9691 341.977 31.5518 340.805 30.7351 339.881C29.9183 338.94 28.7731 338.159 27.2994 337.538C25.8434 336.898 24.1389 336.33 22.1857 335.833L15.9801 334.235C11.4879 333.081 7.93679 331.332 5.3267 328.988C2.73438 326.627 1.43821 323.493 1.43821 319.587C1.43821 316.373 2.30824 313.559 4.0483 311.144C5.80611 308.729 8.19425 306.856 11.2127 305.524C14.2312 304.175 17.6491 303.5 21.4666 303.5C25.3374 303.5 28.7287 304.175 31.6406 305.524C34.5703 306.856 36.8697 308.711 38.5387 311.091C40.2077 313.452 41.0689 316.169 41.1222 319.24H31.614Z" fill="#152344"/>
</g>
<path id="&#226;&#130;&#185;" d="M267.193 190.511L266.185 194.233H247.335L248.358 190.511H267.193ZM257.719 212.5L247.776 200.54L247.761 197.386H252.676C253.85 197.386 254.83 197.192 255.616 196.804C256.412 196.406 257.013 195.852 257.42 195.142C257.837 194.422 258.045 193.58 258.045 192.614C258.045 191.165 257.619 190 256.767 189.119C255.915 188.239 254.551 187.798 252.676 187.798H247.335L248.443 183.409H252.676C255.062 183.409 257.037 183.778 258.599 184.517C260.171 185.246 261.346 186.278 262.122 187.614C262.908 188.949 263.301 190.511 263.301 192.301C263.301 193.883 263.012 195.294 262.435 196.534C261.857 197.775 260.948 198.793 259.707 199.588C258.467 200.384 256.843 200.914 254.835 201.179L254.665 201.236L263.642 212.244V212.5H257.719ZM267.222 183.409L266.185 187.187L250.901 187.131L251.937 183.409H267.222Z" fill="white"/>
</g>
<defs>
<linearGradient id="paint0_linear_2_101" x1="160.5" y1="95.5" x2="160.5" y2="269.5" gradientUnits="userSpaceOnUse">
<stop stop-color="#2563EB"/>
<stop offset="1" stop-color="#10B981" stop-opacity="0"/>
</linearGradient>
</defs>
</svg>
